<svg height="512" viewBox="0 0 64 64" width="512" xmlns="http://www.w3.org/2000/svg" fill="#fff"><path d="M62.41 10.088l-20-9a1.002 1.002 0 00-.82 0L22 9.903 2.41 1.088A1.002 1.002 0 001 2v51a1 1 0 00.59.912l20 9c.261.117.56.117.82 0L42 54.097l19.59 8.815a.995.995 0 00.953-.072c.285-.185.457-.501.457-.84V11a1 1 0 00-.59-.912zM23 11.647l18-8.1v48.807l-18 8.1zM3 3.546l18 8.1v48.807l-18-8.1zm58 56.908l-18-8.1V3.547l18 8.1z"/><path d="M18.385 13.077l-12-5A1 1 0 005 9v13a1 1 0 00.615.923l12 5a.995.995 0 00.94-.091c.278-.186.445-.498.445-.832V14a1 1 0 00-.615-.923zM17 25.5L7 21.333V10.5l10 4.167zM5.618 27.933l.77-1.846 11.999 5.005-.77 1.846zm-.001 5.002l.77-1.846 11.999 5.005-.77 1.846zm0 5.002l.77-1.846 11.999 5.005-.77 1.846zm0 5.002l.77-1.846 11.999 5.005-.77 1.846zm32.938-6.771a.994.994 0 00-.939-.091l-12 5A1 1 0 0025 42v13a1.001 1.001 0 001.385.923l12-5A1 1 0 0039 50V37c0-.334-.167-.646-.445-.832zM37 49.333L27 53.5V42.667L37 38.5zM25.622 36.074l11.999-5.005.77 1.846-11.999 5.005zm-.001-5l11.999-5.005.77 1.846-11.999 5.005zm-.001-5l11.999-5.005.77 1.846L26.39 27.92zm-.001-5l11.999-5.005.77 1.846-11.999 5.005zm19.996 1.849l12 5a.995.995 0 00.94-.091c.278-.186.445-.498.445-.832V14a1 1 0 00-.615-.923l-12-5A1 1 0 0045 9v13a1 1 0 00.615.923zM47 10.5l10 4.167V25.5l-10-4.167zm-1.367 17.436l.77-1.846 11.999 5.005-.77 1.846zm0 5.002l.77-1.846 11.999 5.005-.77 1.846zm-.001 5.002l.77-1.846 11.999 5.005-.77 1.846zm0 5.002l.77-1.846 11.999 5.005-.77 1.846z"/></svg>