<svg height="512" viewBox="0 0 24 24" width="512" xmlns="http://www.w3.org/2000/svg"><path d="M20 17c-1.1 0-2-.9-2-2s.9-2 2-2 2 .9 2 2-.9 2-2 2zm0-3c-.6 0-1 .4-1 1s.4 1 1 1 1-.4 1-1-.4-1-1-1zm3.5 8c-.3 0-.5-.2-.5-.5v-1c0-.8-.7-1.5-1.5-1.5h-3c-.3 0-.5-.2-.5-.5s.2-.5.5-.5h3c1.4 0 2.5 1.1 2.5 2.5v1c0 .3-.2.5-.5.5zM4 17c-1.1 0-2-.9-2-2s.9-2 2-2 2 .9 2 2-.9 2-2 2zm0-3c-.6 0-1 .4-1 1s.4 1 1 1 1-.4 1-1-.4-1-1-1zM.5 22c-.3 0-.5-.2-.5-.5v-1C0 19.1 1.1 18 2.5 18h3c.3 0 .5.2.5.5s-.2.5-.5.5h-3c-.8 0-1.5.7-1.5 1.5v1c0 .3-.2.5-.5.5zM12 17.5c-1.7 0-3-1.3-3-3s1.3-3 3-3 3 1.3 3 3-1.3 3-3 3zm0-5c-1.1 0-2 .9-2 2s.9 2 2 2 2-.9 2-2-.9-2-2-2zM17 24c-.3 0-.5-.2-.5-.5v-2c0-.8-.7-1.5-1.5-1.5H9c-.8 0-1.5.7-1.5 1.5v2c0 .3-.2.5-.5.5s-.5-.2-.5-.5v-2C6.5 20.1 7.6 19 9 19h6c1.4 0 2.5 1.1 2.5 2.5v2c0 .3-.2.5-.5.5zM9.2 10c-.1 0-.2 0-.2-.1-.2-.1-.3-.3-.3-.5l.5-3-2.1-2.1C7 4.2 7 4 7 3.8c.1-.2.2-.3.4-.3l2.9-.5L11.6.3c0-.2.2-.3.4-.3s.4.1.5.3L13.7 3l2.8.4c.2 0 .3.2.4.3s0 .4-.1.5l-2.1 2.1.5 3c0 .2 0 .4-.2.5s-.4.1-.5 0L12 8.5 9.5 9.9c-.1.1-.2.1-.3.1zm-.7-5.7l1.6 1.6c.1.1.2.3.1.4l-.3 2.3 1.9-1c.1-.1.3-.1.5 0l1.9 1-.4-2.2c0-.2 0-.3.1-.4l1.6-1.6-2.1-.3c-.2 0-.3-.1-.4-.3l-.9-2-.9 2c-.2 0-.4.1-.5.2zM17.9 9c-.1 0-.2 0-.3-.1-.2-.1-.2-.3-.2-.5l.4-2.5c0-.3.3-.5.6-.4.3 0 .5.3.4.6l-.2 1.5 1.3-.7c.2-.1.3-.1.5 0l1.3.7-.4-1.6c0-.2 0-.3.1-.4l1.1-1.1-1.5-.2c-.2 0-.3-.1-.4-.3L20 2.7 19.4 4c-.1.3-.4.4-.7.2-.3-.1-.4-.4-.2-.7l1.1-2.3c0-.1.2-.2.4-.2s.4.1.5.3l1 2.1 2.2.3c.2 0 .3.2.4.3.1.2 0 .4-.1.5l-1.6 1.6.4 2.3c0 .2 0 .4-.2.5s-.4.1-.5 0l-2.1-1L18.1 9h-.2zM6.1 9s-.1 0-.2-.1L4 7.9l-1.9 1c-.2.1-.4.1-.6 0-.1-.1-.2-.3-.2-.5l.4-2.3L.1 4.5C0 4.4 0 4.2 0 4c.1-.2.2-.3.4-.3l2.2-.3 1-2.1c0-.2.2-.3.4-.3s.4.1.5.3l1.1 2.3c.1.2 0 .5-.2.7-.4.1-.7 0-.8-.3L4 2.7 3.4 4c-.1.2-.2.3-.4.3l-1.5.2 1.1 1.1c.1.1.2.3.1.4l-.2 1.6 1.3-.7c.2-.1.3-.1.5 0l1.3.7L5.2 6c0-.3.1-.5.4-.6.3 0 .5.1.6.4l.4 2.5c0 .2-.1.4-.2.5-.1.2-.2.2-.3.2z"/></svg>