<svg height="640" viewBox="0 -8 480 480" width="640" xmlns="http://www.w3.org/2000/svg"><path d="M440 0H104C81.918.027 64.027 17.918 64 40v312H8a8 8 0 00-8 8v16c.027 22.082 17.918 39.973 40 40h248.191v40a7.999 7.999 0 0012.801 6.398l27.2-20.398 27.199 20.398a7.946 7.946 0 004.8 1.602 8.074 8.074 0 003.586-.8 7.995 7.995 0 004.414-7.2v-40H376c22.082-.027 39.973-17.918 40-40V64h56a8 8 0 008-8V40c-.027-22.082-17.918-39.973-40-40zM288.191 400H40c-13.254 0-24-10.746-24-24v-8h272.191zm64 40l-19.199-14.398a7.992 7.992 0 00-9.601 0L304.19 440v-89.352c1.547.122 3.102.094 4.641-.09a24.375 24.375 0 0038.527 0 23.71 23.71 0 004.801.09zm10.29-128.16a7.995 7.995 0 00-4.711 4.476 7.987 7.987 0 00.168 6.5 8.321 8.321 0 01-1.606 9.446 8.318 8.318 0 01-9.437 1.66 8.002 8.002 0 00-6.5-.176 8.01 8.01 0 00-4.485 4.719 8.288 8.288 0 01-7.812 5.531 8.29 8.29 0 01-7.817-5.531 8.004 8.004 0 00-4.48-4.719 8.011 8.011 0 00-6.504.176 8.311 8.311 0 01-11.04-11.106 7.993 7.993 0 00.169-6.496 7.995 7.995 0 00-4.707-4.48c-3.317-1.18-5.535-4.32-5.535-7.84s2.218-6.66 5.535-7.84a7.993 7.993 0 004.703-4.476 8 8 0 00-.164-6.493 8.307 8.307 0 011.597-9.453 8.316 8.316 0 019.442-1.66 8.011 8.011 0 006.504.176 8.004 8.004 0 004.48-4.719 8.29 8.29 0 017.817-5.531 8.288 8.288 0 017.812 5.531 8.01 8.01 0 004.485 4.719c2.093.863 4.457.8 6.5-.176a8.318 8.318 0 019.437 1.66 8.321 8.321 0 011.606 9.446 7.987 7.987 0 00-.168 6.5 7.995 7.995 0 004.71 4.476c3.31 1.188 5.52 4.324 5.52 7.84s-2.21 6.652-5.52 7.84zM407.382 17c-.453.64-.856 1.32-1.27 1.992a40.045 40.045 0 00-2.304 4.238c-.36.801-.696 1.54-1.008 2.32a40.595 40.595 0 00-1.488 4.802c-.184.746-.418 1.464-.56 2.222A39.869 39.869 0 00400 40v336c0 13.254-10.746 24-24 24a23.81 23.81 0 01-7.809-1.473V342.88a23.994 23.994 0 006.403-19.598 24.438 24.438 0 000-38.562 24.411 24.411 0 00-6.93-20.293 24.392 24.392 0 00-20.273-6.985 24.375 24.375 0 00-38.527 0 24.404 24.404 0 00-20.27 6.989 24.424 24.424 0 00-6.93 20.289c-5.945 4.629-9.426 11.746-9.426 19.281s3.48 14.652 9.426 19.281a24.053 24.053 0 006.574 19.832V352H80V40c0-13.254 10.746-24 24-24h304c-.223.313-.39.672-.617 1zM464 48h-48v-8c0-13.254 10.746-24 24-24s24 10.746 24 24zm0 0"/><path d="M264 64h32v16h-32zm-80 0h64v16h-64zm-24 40h160v16H160zm-40 48h40v16h-40zm0 40h88v16h-88zm56-40h184v16H176zm48 40h136v16H224zm-104 40h160v16H120zm0 40h136v16H120zm0 0"/></svg>