<svg xmlns="http://www.w3.org/2000/svg" viewBox="0 0 512 512"><path d="M490.175 215.984c-7.815-47.427-29.172-91.284-61.76-126.832-33.393-36.427-76.56-61.724-124.835-73.158C239.471.812 173.288 11.502 117.222 46.098 61.156 80.692 21.917 135.05 6.733 199.157-8.45 263.264 2.241 329.448 36.835 385.515c34.595 56.066 88.952 95.306 153.06 110.49 19.028 4.506 38.229 6.734 57.304 6.732 45.191-.001 89.629-12.508 129.054-36.835a8.555 8.555 0 10-8.986-14.561c-52.178 32.194-113.767 42.143-173.429 28.014C70.68 450.186-5.785 326.258 23.384 203.102 52.553 79.943 176.481 3.478 299.637 32.647c44.926 10.641 85.095 34.178 116.165 68.069 30.336 33.092 50.216 73.913 57.489 118.051.768 4.663 5.178 7.817 9.833 7.051a8.558 8.558 0 007.051-9.834z"/><path d="M511.64 308.302a8.559 8.559 0 00-6.224-5.87l-15.756-3.731a246.81 246.81 0 003.689-49.277c-.122-4.724-4.043-8.439-8.774-8.331a8.557 8.557 0 00-8.331 8.774c.465 17.869-1.189 35.868-4.915 53.495a8.554 8.554 0 006.398 10.094l9.325 2.21-44.886 47.592-18.773-62.669 9.158 2.169a8.558 8.558 0 0010.353-6.605c10.498-51.149.811-103.611-27.276-147.723-28.146-44.205-71.737-75.203-122.744-87.284-107.442-25.445-215.552 41.263-241 148.705-7.985 33.717-7.104 69.02 2.548 102.093 9.358 32.061 26.749 61.546 50.293 85.268a8.529 8.529 0 006.072 2.528 8.558 8.558 0 006.074-14.583c-44.953-45.29-63.024-109.35-48.337-171.362C91.808 115.533 190.683 54.528 288.943 77.798c46.647 11.049 86.512 39.397 112.254 79.824 24.099 37.849 33.388 82.418 26.517 126.406l-14.794-3.503c-2.975-.707-6.098.232-8.196 2.455s-2.849 5.397-1.972 8.325l27.277 91.059a8.558 8.558 0 0014.42 3.415l65.221-69.151a8.562 8.562 0 001.97-8.326zM354.675 414.64a8.555 8.555 0 00-11.773-2.788c-41.629 25.687-90.768 33.626-138.369 22.35-23.864-5.651-45.925-15.773-65.573-30.083a8.556 8.556 0 00-10.073 13.831c21.493 15.654 45.618 26.724 71.703 32.902 15.448 3.659 31.037 5.466 46.523 5.466 36.689 0 72.766-10.155 104.775-29.905a8.556 8.556 0 002.787-11.773z"/><path d="M284.017 247.413h-75.412c-5.797 0-10.513-4.716-10.513-10.513v-30.717c0-5.797 4.716-10.513 10.513-10.513h94.48a8.555 8.555 0 000-17.11h-48.219v-30.79a8.555 8.555 0 00-17.11 0v30.79h-29.15c-15.232 0-27.624 12.392-27.624 27.624V236.9c0 15.232 12.392 27.624 27.624 27.624h75.412c5.797 0 10.513 4.716 10.513 10.513v30.717c-.001 5.796-4.717 10.513-10.514 10.513h-94.48a8.555 8.555 0 000 17.11h48.219v30.79a8.555 8.555 0 0017.11 0v-30.79h29.151c15.232 0 27.624-12.392 27.624-27.624v-30.717c0-15.231-12.392-27.623-27.624-27.623z"/></svg>